<svg aria-hidden="true" style="position: absolute; width: 0; height: 0; overflow: hidden;" version="1.1" xmlns="http://www.w3.org/2000/svg" xmlns:xlink="http://www.w3.org/1999/xlink">
<defs>
<symbol id="icon-Brand-icon" viewBox="0 0 32 32">
<path fill="#1dcf65" style="fill: var(--color1, #1dcf65)" d="M26.554 22.372c0.021 0.248-0.173 0.462-0.42 0.462h-20.305c-0.246 0-0.44-0.213-0.42-0.461l1.455-17.759c0.018-0.221 0.201-0.39 0.42-0.39h17.334c0.219 0 0.401 0.169 0.419 0.389l1.516 17.759z"></path>
<path fill="#000" style="fill: var(--color2, #000)" d="M28.175 27.006c0.025 0.31-0.217 0.576-0.524 0.576h-23.284c-0.307 0-0.549-0.264-0.525-0.574l1.672-21.273c0.022-0.277 0.25-0.49 0.525-0.49h19.871c0.274 0 0.502 0.212 0.525 0.488l1.741 21.273z"></path>
<path fill="#fff" style="fill: var(--color3, #fff)" d="M15.55 20.835c-3.031 0-5.496-2.991-5.496-6.667 0-0.191 0.154-0.347 0.343-0.347s0.343 0.155 0.343 0.347c0 3.294 2.158 5.974 4.81 5.974s4.81-2.68 4.81-5.974c0-0.191 0.154-0.347 0.343-0.347s0.343 0.155 0.343 0.347c-0 3.676-2.466 6.667-5.496 6.667z"></path>
<path fill="#fff" style="fill: var(--color3, #fff)" d="M18.933 14.075c-0.088 0-0.176-0.034-0.243-0.102-0.134-0.135-0.134-0.355 0-0.49l1.779-1.797c0.064-0.065 0.152-0.102 0.243-0.102s0.178 0.036 0.243 0.102l1.761 1.78c0.134 0.135 0.134 0.355 0 0.49s-0.351 0.135-0.485 0l-1.519-1.534-1.536 1.552c-0.067 0.068-0.155 0.102-0.243 0.102z"></path>
</symbol>
</defs>
</svg>
